<?xml version="1.0" encoding="UTF-8" ?>
<!DOCTYPE svg PUBLIC "-//W3C//DTD SVG 1.1//EN" "http://www.w3.org/Graphics/SVG/1.1/DTD/svg11.dtd">
<svg width="495pt" height="381pt" viewBox="0 0 495 381" version="1.1" xmlns="http://www.w3.org/2000/svg">
<g id="#fefefeff">
</g>
<g id="#fefefeff">
<path fill="#fefefeff" opacity="1.00" d=" M 251.41 54.45 C 276.26 53.53 301.14 54.18 326.00 54.00 C 349.90 54.14 373.86 53.35 397.70 55.33 C 402.37 56.20 409.19 56.47 411.37 61.66 C 414.27 65.99 410.74 69.27 407.77 71.79 C 398.16 74.81 387.97 74.85 378.01 75.02 C 346.34 75.15 314.66 74.76 282.99 75.11 C 230.05 76.69 177.10 77.70 124.16 79.37 C 105.42 79.73 86.77 82.79 68.01 81.91 C 64.88 81.44 61.00 80.57 59.59 77.37 C 58.18 73.75 58.20 68.23 62.34 66.43 C 71.25 63.39 80.70 62.87 89.99 61.97 C 112.27 60.07 134.62 59.18 156.97 58.69 C 188.47 57.56 219.92 55.65 251.41 54.45 Z" />
<path fill="#fefefeff" opacity="1.00" d=" M 334.35 89.32 C 338.47 82.64 347.17 82.84 353.98 83.05 C 359.94 82.49 365.15 85.80 369.28 89.71 C 375.08 96.34 379.66 104.47 380.40 113.40 C 381.27 123.33 382.25 133.38 381.27 143.33 C 379.12 152.00 365.34 151.92 362.13 143.93 C 357.98 130.43 363.44 114.27 353.38 102.74 C 351.95 102.87 350.52 103.01 349.09 103.15 C 342.08 118.40 340.95 135.46 340.07 151.98 C 339.84 162.91 339.58 173.92 340.90 184.79 C 349.25 185.63 357.88 185.60 365.95 188.13 C 372.08 191.99 371.37 202.82 364.34 205.31 C 356.31 206.56 348.10 205.83 340.02 205.24 C 340.04 230.51 340.19 255.80 338.92 281.04 C 338.73 285.40 336.76 289.38 335.37 293.45 C 331.04 293.04 324.30 294.92 323.13 288.99 C 320.52 279.57 321.19 269.66 320.93 260.00 C 321.25 218.34 320.61 176.68 321.24 135.03 C 322.37 119.19 324.92 102.52 334.35 89.32 Z" />
<path fill="#fefefeff" opacity="1.00" d=" M 133.44 90.51 C 140.29 88.24 148.37 94.64 146.77 101.99 C 146.85 118.36 149.19 134.62 149.03 151.00 C 148.88 187.65 149.72 224.40 146.87 260.98 C 146.26 271.74 140.92 282.93 131.05 288.01 C 121.24 291.52 110.59 287.42 102.96 281.03 C 97.13 276.69 91.94 270.70 90.59 263.36 C 88.27 250.38 89.02 237.06 90.09 223.99 C 90.61 215.46 104.33 214.18 108.00 220.96 C 110.32 231.29 108.91 242.00 109.42 252.48 C 108.64 261.12 116.62 266.24 123.22 269.79 C 129.01 256.18 127.65 240.99 128.57 226.59 C 129.69 183.82 128.75 140.95 125.54 98.29 C 125.86 94.19 129.68 91.33 133.44 90.51 Z" />
<path fill="#fefefeff" opacity="1.00" d=" M 246.42 145.39 C 254.22 142.30 260.72 150.79 260.12 157.92 C 262.49 196.38 262.19 235.06 258.72 273.45 C 257.96 279.26 258.80 285.64 256.01 291.03 C 253.00 297.03 241.76 296.84 240.54 289.60 C 238.44 259.09 241.93 228.56 241.72 198.03 C 241.44 182.72 239.96 167.44 240.29 152.12 C 240.74 148.94 243.39 146.28 246.42 145.39 Z" />
<path fill="#fefefeff" opacity="1.00" d=" M 288.39 167.39 C 292.09 166.79 296.26 166.47 299.69 168.37 C 303.86 172.47 303.19 178.69 303.16 184.02 C 303.38 188.05 302.28 191.67 299.84 194.85 C 295.89 196.29 291.01 196.93 287.23 194.76 C 283.19 189.07 283.72 181.56 283.18 174.92 C 283.04 171.69 285.21 168.27 288.39 167.39 Z" />
<path fill="#fefefeff" opacity="1.00" d=" M 168.09 194.97 C 168.10 189.66 168.69 178.81 176.99 180.98 C 180.88 178.92 182.82 182.25 184.25 184.76 C 186.33 189.17 186.38 194.24 186.75 199.01 C 187.37 215.20 187.54 231.42 188.66 247.59 C 189.66 256.61 191.19 266.07 196.55 273.65 C 200.77 264.04 201.43 253.37 202.24 243.05 C 203.51 227.03 202.96 210.97 202.46 194.93 C 201.19 189.69 204.46 185.36 206.59 181.00 C 211.51 182.66 218.82 180.76 221.60 186.35 C 223.41 190.27 222.55 194.81 223.04 198.97 C 223.20 218.21 223.33 237.50 221.73 256.69 C 220.76 268.73 216.90 280.78 209.30 290.29 C 206.65 294.28 201.49 295.06 197.08 294.84 C 187.96 293.56 180.07 287.26 175.76 279.30 C 164.91 252.55 168.30 223.11 168.09 194.97 Z" />
<path fill="#fefefeff" opacity="1.00" d=" M 283.76 214.66 C 286.32 207.62 299.51 207.92 301.39 215.46 C 302.82 231.93 301.79 248.49 302.05 265.00 C 301.72 275.51 302.93 287.29 296.28 296.27 C 291.50 295.49 284.19 294.55 284.01 288.02 C 281.57 274.14 283.91 259.99 283.89 246.00 C 284.23 235.55 283.01 225.08 283.76 214.66 Z" />
<path fill="#fefefeff" opacity="1.00" d=" M 64.05 305.02 C 82.95 302.04 102.01 306.04 120.97 306.28 C 174.63 308.28 228.32 309.15 281.99 310.80 C 318.60 311.52 355.24 310.42 391.85 311.25 C 399.01 312.10 408.21 311.86 412.21 319.07 C 413.64 327.69 404.10 330.46 397.57 330.42 C 361.44 333.00 325.19 331.69 289.00 332.02 C 245.46 332.71 202.04 328.68 158.55 327.53 C 129.02 326.80 99.39 326.13 70.13 321.75 C 65.85 321.04 61.91 319.13 58.12 317.11 C 58.97 313.05 58.57 306.08 64.05 305.02 Z" />
</g>
</svg>
